<svg width="48" height="48" viewBox="0 0 48 48" fill="none" xmlns="http://www.w3.org/2000/svg">
<circle cx="28.8151" cy="2.11325" r="1.5" transform="rotate(50 28.8151 2.11325)" fill="#E28FBF"/>
<circle cx="23.8357" cy="6.29134" r="1" transform="rotate(50 23.8357 6.29134)" fill="#884C83"/>
<circle cx="9.5" cy="6.04163" r="1.5" fill="#E28FBF"/>
<circle cx="9.5" cy="12.5416" r="1" fill="#884C83"/>
<circle cx="44.1928" cy="11.707" r="1.5" transform="rotate(112 44.1928 11.707)" fill="#E9B857"/>
<circle cx="38.166" cy="9.27212" r="1" transform="rotate(112 38.166 9.27212)" fill="#D5C498"/>
<circle cx="45.3389" cy="28.5786" r="1.5" transform="rotate(162 45.3389 28.5786)" fill="#E9B857"/>
<circle cx="43.3303" cy="22.3967" r="1" transform="rotate(162 43.3303 22.3967)" fill="#D5C498"/>
<circle cx="31.8099" cy="45.4232" r="1.5" transform="rotate(-138 31.8099 45.4232)" fill="#4F9ACD"/>
<circle cx="36.1594" cy="40.5928" r="1" transform="rotate(-138 36.1594 40.5928)" fill="#4B79AE"/>
<circle cx="13.2151" cy="42.7233" r="1.5" transform="rotate(-104 13.2151 42.7233)" fill="#77AC5E"/>
<circle cx="19.5218" cy="41.1508" r="1" transform="rotate(-104 19.5218 41.1508)" fill="#7B8B79"/>
<circle cx="2.121" cy="22.5786" r="1.5" transform="rotate(-44 2.121 22.5786)" fill="#77AC5E"/>
<circle cx="6.63617" cy="27.2544" r="1" transform="rotate(-44 6.63617 27.2544)" fill="#7B8B79"/>
</svg>
